<?xml version="1.0" encoding="UTF-8" standalone="no"?>
<svg
  xmlns="http://www.w3.org/2000/svg"
  xmlns:svg="http://www.w3.org/2000/svg"
  viewBox="-48 0 96 96">
<defs>
  <linearGradient id="grad1">
    <stop stop-color="#666" offset="0%"   />
    <stop stop-color="#444" offset="35%"   />
    <stop stop-color="#222" offset="50%"  />
    <stop stop-color="#111" offset="65%"  />
    <stop stop-color="#000" offset="100%" />
  </linearGradient>
  <linearGradient id="grad2" x1="0" y1="0" x2="0" y2="1">
    <stop stop-color="#666" offset="0%"   />
    <stop stop-color="#444" offset="35%"   />
    <stop stop-color="#222" offset="50%"  />
    <stop stop-color="#111" offset="65%"  />
    <stop stop-color="#000" offset="100%" />
  </linearGradient>
  <linearGradient id="grad3" x1="0.3" y1="0.3" x2="0.7" y2="0.7">
    <stop stop-color="#666" offset="0%"   />
    <stop stop-color="#222" offset="50%"  />
    <stop stop-color="#000" offset="100%" />
  </linearGradient>
  <linearGradient id="grad4" x1="0" y1="0" x2="0.5" y2="0.7">
    <stop stop-color="#000" offset="0%"   />
    <stop stop-color="#222" offset="50%"  />
    <stop stop-color="#666" offset="100%" />
  </linearGradient>
  <radialGradient id="grad5" cx="0.5" cy="0.5" r="0.5">
    <stop stop-color="#222" offset="0%"   />
    <stop stop-color="#222" stop-opacity="0.5" offset="70%" />
    <stop stop-color="#222" stop-opacity="0" offset="100%" />
  </radialGradient>
  <filter id="large-shadow" height="200%" width="200%">
    <feGaussianBlur in="SourceAlpha" stdDeviation="0.15" result="blur1" />
    <feGaussianBlur in="SourceAlpha" stdDeviation="0.3"  result="blur2" />
    <feGaussianBlur in="SourceAlpha" stdDeviation="0.6"  result="blur3" />
    <feGaussianBlur in="SourceAlpha" stdDeviation="1.2"  result="blur4" />
    <feOffset in="blur1" dx="0.3" dy="0.3" result="offset1"/>
    <feOffset in="blur2" dx="0.6" dy="0.6" result="offset2"/>
    <feOffset in="blur3" dx="1.2" dy="1.2" result="offset3"/>
    <feOffset in="blur4" dx="2.4" dy="2.4" result="offset4"/>
    <feComponentTransfer in="offset1" result="shadow1">
      <feFuncA type="linear" slope="0.8"/>
    </feComponentTransfer>
    <feComponentTransfer in="offset2" result="shadow2">
      <feFuncA type="linear" slope="0.6"/>
    </feComponentTransfer>
    <feComponentTransfer in="offset3" result="shadow3">
      <feFuncA type="linear" slope="0.4"/>
    </feComponentTransfer>
    <feComponentTransfer in="offset4" result="shadow4">
      <feFuncA type="linear" slope="0.2"/>
    </feComponentTransfer>
    <feMerge>
      <feMergeNode in="shadow1"/>
      <feMergeNode in="shadow2"/>
      <feMergeNode in="shadow3"/>
      <feMergeNode in="shadow4"/>
      <feMergeNode in="SourceGraphic"/>
    </feMerge>
  </filter>
  <filter id="bevel">
    <feGaussianBlur in="SourceAlpha" stdDeviation="0.3"  result="blur" />
    <feOffset in="blur" dx="-0.6" dy="-0.6" result="offsetup"/>
    <feOffset in="blur" dx="0.6" dy="0.6" result="offsetdown"/>
    <feFlood flood-color="#666" />
    <feComposite in2="offsetup" operator="in" result="highlightraw" />
    <feComponentTransfer in="offsetdown" result="shadow">
      <feFuncA type="linear" slope="0.8"/>
    </feComponentTransfer>
    <feComponentTransfer in="highlightraw" result="highlight">
      <feFuncA type="linear" slope="0.8"/>
    </feComponentTransfer>
    <feMerge>
      <feMergeNode in="highlight"/>
      <feMergeNode in="shadow"/>
      <feMergeNode in="SourceGraphic"/>
    </feMerge>
  </filter>
</defs>
<g id="frame">
  <path stroke="#222" stroke-width="3" stroke-linecap="round" fill="#222" d="M33,18.5h13.5v80h-93v-80h13.5" />
  <path stroke-width="0" fill="#666" d="M-45,93l2,-2h86v-69l2,-2v73Z" />
  <path stroke-width="0" fill="#000" d="M-45,93v-73h12v2h-10v69Z" />
  <path stroke-width="0" fill="#000" d="M33,20h12l-2,2h-10Z" />
  <path stroke-width="0" fill="url(#grad2)" d="M-43,91l2,-2h82l2,2Z" />
  <path stroke-width="0" fill="url(#grad1)" d="M43,91l-2,-2v-65l2,-2Z" />
  <path stroke-width="0" fill="url(#grad1)" d="M-43,91l2,-2v-65l-2,-2Z" />
  <path stroke-width="0" fill="url(#grad2)" d="M-33,22h-10l2,2h8Z" />
  <path stroke-width="0" fill="url(#grad2)" d="M33,22h10l-2,2h-8Z" />
</g>
<g id="shadow-elements" stroke-width="0" fill="#222" filter="url(#large-shadow)">
  <path d="M-33,16h22A7,8 0 0 1 -18,24h-15Z" />
  <path d="M-11,16h22v1A11,11 0 0 1 -11,17Z" />
  <path d="M33,17h-15v-1h-7A7,8 0 0 0 18,24h15Z" />
</g>
<g id="left-scroll">
  <path stroke-width="0" fill="#222" d="M-33,14h9A6,6 0 0 1 -18,8A7,8 0 0 1 -18,24h-15Z" />
  <path stroke-width="0" fill="#666" d="M-28,19h10v-8A4,5 0 0 1 -18,21h-10Z" />
  <path stroke-width="0" fill="#000" d="M-33,20h3v-3h12v-6A3.5,4 0 0 1 -18,19h-10v3h-5Z" />
  <circle stroke-width="0" fill="url(#grad3)" cx="-18" cy="14" r="3" />
  <circle stroke-width="0" fill="url(#grad5)" cx="-18" cy="14" r="3" />
</g>
<g id="seal">
  <path stroke="#eee" stroke-width="3" fill="#222" d="M-9.5,11A4,4 0 0 1 9.5,11v6A4,4 0 0 1 -9.5,17Z" />
  <g filter="url(#bevel)">
    <path stroke-width="0" fill="#ddd" d="M0,5C0.5,6 2,6.5 3,6.5C3.5,7.5 5,8 6,8C5,8.5 5,9 5,10v3h-10v-3C-5,9 -5,8.5 -6,8C-5,8 -3.5,7.5 -3,6.5C-2,6.5 -0.5,6 0,5" />
    <path stroke-width="0" fill="#105" d="M-5,13h5v10C-1,21 -5,21 -5,19Z" />
    <path stroke-width="0" fill="#711" d="M5,13h-5v10C1,21 5,21 5,19Z" />
  </g>
</g>
<g id="right-scroll">
  <path stroke-width="0" fill="#222" d="M33,14h-9A6,6 0 0 0 18,8A7,8 0 0 0 18,24h15Z" />
  <path stroke-width="0" fill="url(#grad4)" d="M28,19h-10v-8A4,5 0 0 0 18,21h10Z" />
  <path stroke-width="0" fill="#000" d="M33,20h-3l-2,2h5Z" />
  <path stroke-width="0" fill="#666" d="M30,20v-3l-2,2v3Z" />
  <path stroke-width="0" fill="url(#grad3)" d="M30,17h-12v-6A3.5,4 0 0 0 18,19h10Z" />
  <circle stroke-width="0" fill="url(#grad3)" cx="18" cy="14" r="3" />
  <circle stroke-width="0" fill="url(#grad5)" cx="18" cy="14" r="3" />
</g>
<g stroke="#eee" stroke-width="2" stroke-linecap="round" stroke-linejoin="round" fill-opacity="0" filter="url(#bevel)">
  <path d="M-34,32m1,11l3,1c4,22 16,-22 25,-6m-13,4l4,2" />
  <path d="M4,32m1,19c-0,-22 28,-22 28,0m-14,-16v16" />
  <path d="M-34,58m1,19c-0,-22 28,-22 28,0m-14,-16v12m0,4v4m-2,-2h4" />
  <path d="M4,58m1,5c4,12 24,-10 28,0m-26,4c-10,25 22,-6 26,6" />
</g>
</svg>
