<?xml version="1.0" encoding="UTF-8" standalone="no"?>
<svg xmlns="http://www.w3.org/2000/svg" xmlns:svg="http://www.w3.org/2000/svg" xmlns:xlink="http://www.w3.org/1999/xlink" viewBox="-686 0 1372 1760">
  <defs>
    <path id="type_philippine_p" d="m0 0 0 40.91q0 6.46 0.21 8.31 0.31 1.74 1.44 3.38 2.56 3.79 9.74 4.31 4.72 0.31 6.36 1.13 1.64 0.72 1.64 2.67 0 3.18-4.61 3.18-1.64 0-9.74-0.41-10.25-0.62-17.12-0.62-6.15 0-22.87 0.92-2.36 0.1-3.9 0.1-4.41 0-4.41-3.18 0-1.95 1.64-2.67 1.64-0.82 6.25-1.13 7.08-0.51 9.64-4.31 1.13-1.64 1.33-3.38 0.31-1.85 0.31-8.31l0-95.46q0-6.46-0.31-8.2-0.21-1.85-1.33-3.49-2.56-3.79-9.64-4.31-4.61-0.31-6.25-1.03-1.64-0.82-1.64-2.77 0-3.18 4.82-3.18 1.54 0 9.54 0.41 8.51 0.51 17.23 0.51 8.92 0 20.2-0.51 10.66-0.41 15.59-0.41 18.05 0 29.43 7.18 8.41 5.33 13.02 13.84 4.72 8.61 4.72 19.17 0 18.76-14.25 30.15-12.2 9.74-27.58 9.74-7.9 0-19.79-4.2-6.56-2.26-7.69-2.26-1.23 0-1.64 0.72-0.31 0.72-0.31 3.18zm0-53.83 0 38.66q0 3.08 0.41 4.1 0.51 1.03 2.26 1.74 5.64 2.46 13.23 2.46 12.2 0 20.61-8 9.33-8.82 9.33-23.58 0-15.59-10.77-25.22-8.92-8.1-20.82-8.1-8.41 0-11.38 3.69-2.87 3.59-2.87 14.25z"/>
    <path id="type_philippine_h" d="m0 0 47.89 0q5.84 0 6.97-1.03 1.23-1.03 1.23-5.95l0-31.79q0-6.46-0.31-8.2-0.21-1.85-1.33-3.49-2.56-3.79-9.54-4.31-4.61-0.31-6.25-1.03-1.64-0.82-1.64-2.77 0-3.18 4.61-3.18 2.05 0 9.54 0.51 8.61 0.51 17.02 0.51 8.2 0 17.02-0.51 7.69-0.51 9.95-0.51 4.41 0 4.41 3.18 0 1.95-1.64 2.77-1.64 0.72-6.36 1.03-7.18 0.51-9.74 4.31-1.13 1.64-1.44 3.49-0.21 1.74-0.21 8.2l0 95.46q0 6.46 0.21 8.31 0.31 1.74 1.44 3.38 2.56 3.79 9.74 4.31 4.72 0.31 6.36 1.13 1.64 0.72 1.64 2.67 0 3.18-4.72 3.18-1.85 0-9.64-0.51-9.02-0.51-17.23-0.51-7.79 0-16.82 0.51-7.79 0.51-9.74 0.51-4.41 0-4.41-3.18 0-1.95 1.64-2.67 1.64-0.82 6.25-1.13 6.97-0.51 9.54-4.31 1.13-1.64 1.33-3.38 0.31-1.85 0.31-8.31l0-43.37q0-3.9-1.23-4.82-1.13-0.92-6.15-0.92l-47.37 0q-6.36 0-7.49 0.72-1.13 0.62-1.13 4.51l0 43.89q0 6.46 0.21 8.31 0.31 1.74 1.44 3.38 2.56 3.79 9.54 4.31 4.61 0.31 6.25 1.13 1.64 0.72 1.64 2.67 0 3.18-4.61 3.18-2.05 0-9.54-0.51-8.51-0.51-16.92-0.51-8.1 0-16.92 0.51-7.69 0.51-9.95 0.51-4.41 0-4.41-3.18 0-1.95 1.64-2.67 1.64-0.82 6.25-1.13 7.08-0.51 9.64-4.31 1.13-1.64 1.33-3.38 0.31-1.85 0.31-8.31l0-95.46q0-6.46-0.31-8.2-0.21-1.85-1.33-3.49-2.56-3.79-9.64-4.31-4.61-0.31-6.25-1.03-1.64-0.82-1.64-2.77 0-3.18 4.72-3.18 1.44 0 9.64 0.51 9.33 0.51 17.43 0.51 7.49 0 16.41-0.51 7.79-0.51 9.74-0.51 4.41 0 4.41 3.18 0 1.95-1.64 2.77-1.64 0.72-6.25 1.03-6.97 0.51-9.54 4.31-1.13 1.64-1.44 3.49-0.21 1.74-0.21 8.2l0 31.89q0 5.13 0.92 6.05 1.03 0.82 6.36 0.82z"/>
    <path id="type_philippine_i" d="m0 0 0 95.46q0 6.46 0.21 8.31 0.31 1.74 1.44 3.38 2.56 3.79 9.74 4.31 4.72 0.31 6.36 1.13 1.64 0.72 1.64 2.67 0 3.18-4.72 3.18-1.44 0-9.64-0.51-9.33-0.51-17.12-0.51-7.49 0-22.87 0.92-2.15 0.1-3.79 0.1-4.51 0-4.51-3.18 0-1.95 1.64-2.67 1.64-0.82 6.25-1.13 7.08-0.51 9.64-4.31 1.13-1.64 1.33-3.38 0.31-1.85 0.31-8.31l0-95.46q0-6.46-0.31-8.2-0.21-1.85-1.33-3.49-2.56-3.79-9.64-4.31-4.61-0.31-6.25-1.03-1.64-0.82-1.64-2.77 0-3.18 4.72-3.18 1.85 0 9.64 0.51 8.92 0.51 17.12 0.51 7.79 0 16.82-0.51 7.9-0.51 9.95-0.51 4.41 0 4.41 3.18 0 1.95-1.64 2.77-1.64 0.72-6.36 1.03-7.18 0.51-9.74 4.31-1.13 1.64-1.44 3.49-0.21 1.74-0.21 8.2z"/>
    <path id="type_philippine_l" d="m0 0-69.83 0q-1.33 0-4.92 0.21-6.56 0.51-9.95 0.51-4.31 0-4.31-3.18 0-1.95 1.64-2.67 1.64-0.82 6.25-1.13 7.08-0.51 9.64-4.31 1.13-1.64 1.33-3.38 0.31-1.85 0.31-8.31l0-95.46q0-6.46-0.31-8.2-0.21-1.85-1.33-3.49-2.56-3.79-9.64-4.31-4.61-0.31-6.25-1.03-1.64-0.82-1.64-2.77 0-3.18 4.72-3.18 1.64 0 9.64 0.51 10.77 0.62 17.33 0.62 5.54 0 22.66-1.03 2.15-0.1 3.79-0.1 4.51 0 4.51 3.18 0 1.95-1.64 2.77-1.64 0.72-6.36 1.03-7.18 0.51-9.74 4.31-1.13 1.64-1.44 3.49-0.21 1.74-0.21 8.2l0 89.62q0 12.2 4 17.02 4 4.82 14.15 4.82 13.23 0 22.56-5.95 9.43-6.05 16.3-18.87 1.44-2.67 3.28-2.67 2.77 0 2.77 3.49 0 1.85-0.62 5.23-1.85 9.54-2.56 20.1-0.21 3.08-1.33 4.2-1.13 1.03-4 1.03l-8.82-0.31z"/>
    <path id="type_philippine_n" d="m0 0-1.03-69.42q-0.21-18.56-2.15-22.97-1.85-4.51-9.64-4.82-5.95-0.31-8.1-1.03-2.05-0.82-2.05-2.67 0-3.18 5.64-3.18 0.82 0 4.61 0.21 7.18 0.51 16 0.51 9.02 0 14.97-0.51 4.2-0.31 6.36-0.31 4.1 0 4.1 3.28 0 1.95-1.85 2.77-1.85 0.82-7.08 1.33-7.49 0.62-9.54 3.08-1.95 2.36-1.95 10.77l0.72 117.71q0 6.36-4 6.36-2.87 0-7.18-5.54l-95.57-119.56 0.82 77.93q0.1 16.2 1.13 23.38 1.13 7.08 3.69 9.33 1.85 1.64 4.1 2.26 2.36 0.51 10.46 1.13 3.9 0.31 3.9 3.18 0 3.18-5.43 3.18-0.72 0-6.25-0.31-7.9-0.41-13.02-0.41-8.41 0-16.1 0.82-6.15 0.62-8.51 0.62-4 0-4-2.97 0-1.85 1.54-2.46 1.54-0.72 8.72-1.64 8-1.03 9.43-5.54 1.54-4.61 1.54-28.2l0-74.55q0-12.92-1.95-16.1-1.95-3.28-9.64-3.38-4.92-0.1-6.66-0.82-1.74-0.72-1.74-2.56 0-1.85 1.44-2.46 1.54-0.72 5.64-0.72 0.72 0 19.17 0.62l14.46-0.51q2.87 0 3.9 0.82 1.13 0.72 4.61 5.54l76.49 97.82z"/>
    <path id="type_philippine_e" d="m0 0 0-95.46q0-6.46-0.31-8.2-0.2-1.85-1.33-3.49-2.56-3.79-9.64-4.31-4.61-0.31-6.25-1.03-1.64-0.82-1.64-2.77 0-3.18 4.61-3.18l14.56 0.72 63.68 0q7.38 0 13.74-0.31 3.28-0.2 5.02-0.2 1.85 0 2.36 1.13 0.51 1.13 0.51 5.43l0 20.61q0 4-2.46 4-2.26 0-4.1-3.9-4.2-8.82-6.77-11.69-2.56-2.87-7.9-5.02-9.74-3.9-27.58-3.9-8.41 0-10.46 2.26-1.95 2.15-1.95 11.59l0 33.53q0 4.2 0.31 5.54 0.41 1.23 1.85 2.15 2.15 1.33 10.25 1.33 16.41 0 22.15-3.08 5.74-3.18 9.43-14.05 1.13-3.38 3.28-3.38 2.46 0 2.46 3.08 0 2.46-0.41 5.95-1.23 11.59-1.23 25.22 0 2.67 0.31 5.95 0.41 4.1 0.41 5.84 0 4.2-2.67 4.2-2.97 0-4.41-5.43-3.59-13.64-11.48-16.51-4.1-1.54-18.87-1.54-7.9 0-9.64 1.03-1.74 1.03-1.74 5.74l0 39.48q0 11.48 4.31 14.97 4.41 3.49 18.76 3.49 9.64 0 14.77-1.54 5.13-1.54 9.74-5.64 3.9-3.59 5.84-6.46 2.05-2.97 6.77-12 1.44-2.77 3.49-2.77 2.56 0 2.56 3.28 0 2.77-1.23 8.2-0.92 4.41-1.54 12.41-0.51 8.51-1.74 9.74-1.23 1.23-9.23 1.23l-76.6 0q-1.33 0-4.92 0.21-6.56 0.51-9.95 0.51-4.31 0-4.31-3.18 0-1.95 1.64-2.67 1.64-0.82 6.25-1.13 7.08-0.51 9.64-4.31 1.13-1.64 1.33-3.38 0.31-1.85 0.31-8.31z"/>
  </defs>
  <g id="frame" style="fill:#fff;stroke:#000">
    <path style="stroke-width:30" d="m-656,30 1312,0 0,1700-1312,0z"/>
    <path style="stroke-width:10" d="m-606,80 1212,0 0,1600-1212,0z"/>
  </g>
  <g id="capitol" transform="translate(0,80)">
    <g id="half">
      <g style="fill:#000">
        <path d="m175.09,529.37c-10.19,4.55-31.42,9.09-59.09,13.64l-1.01,-92.43c30.08,-5.54 45.3,-9.93 58.08,-14.14z"/>
        <path d="m39.23,457.65 0,91.42c-0.27,0.39-20.85,0.74-39.23,0.52l0,-91.42c25.14,0 27.56,-0.95 39.23,-1.51z"/>
        <path d="m155.2,560.43 0,18.57-3.57,4.64-13.93,2.5-3.93,-5.36 0,-17.14 3.57,-5 13.93,-2.14z"/>
        <path d="m10.45,569.35 5.14,4.29 0,18.21-5.14,3.93-10.45,0 0,-26.43z"/>
        <path d="m177.7,595.43c-16.84,5.42-37.92,9.58-64.29,12.14l0,63.21 66.07,0z"/>
        <path d="m38.06,613.28 0.71,57.5-38.77,0 0,-57.5z"/>
        <circle cx="166.4" cy="717.26" r="15.54"/>
        <circle cx="0" cy="717.26" r="15.54"/>
        <path d="m212.47,911.71-2.53,-155.56-84.35,0 3.03,155.56z"/>
        <path d="m44.79,911.71-1.01,-155.56-43.78,0-0,155.56z"/>
      </g>
      <g style="fill:none;stroke:#000;stroke-linecap:round;stroke-linejoin:miter">
        <g style="stroke-width:3">
          <path d="m92.09,264.71-2.02,-79.3"/>
          <path d="m383.56,219-0.82,-12.86-103,0"/>
          <path d="m282.05,265.11-4.35,-83.98"/>
          <path d="m236.2,277.15-2.9,-94.58"/>
          <path d="m233,206.14-20,0c-6,75-98,101-213,101"/>
          <path d="m389.58,330-1.13,-22.5-101.21,0"/>
          <path d="m242,299.71-2.86,7.79-26.86,0c-5,61.59-85.44,87.86-212.28,87.86"/>
          <path d="m287.95,335.78-46.07,0 0,12.14-23.93,0"/>
          <path d="m216,348c-6,54-100,78-216,78"/>
          <path d="m216.12,368c-6,54-140,72-216.12,72"/>
          <path d="m200.68,395-3,14.12-26.25,14.12-3.03,-8"/>
          <path d="m94.62,433.4-1,9.6-44.45,4.04-1.52,-9.09"/>
          <path d="m204.22,670.79-8.08,-261.12"/>
          <path d="m179,670.79-6.54,-249.51"/>
          <path d="m92.6,671-2.53,-227.28"/>
          <path d="m53.2,671-0.51,-223.75"/>
          <path d="m175,536.94c-17.43,6.48-46.73,11.37-83,15.15"/>
          <path d="m52,555.37874c-12.46,1.57-33.24,1.76-52,2"/>
          <path d="m419.5,862.57-100,0"/>
          <path d="m225.09,911.5-4.64,-167.5-108.93,0 3.93,167.5"/>
          <path d="m57.13,911.5-0.75,-167.5-56.38,0"/>
        </g>
        <g style="stroke-width:6">
          <path d="m385.2,193.22-105.66,0"/>
          <path d="m231.71,193.22-22.71,0.16c-7.23,82.74-92.24,100.53-209,100.53"/>
          <path d="m216,285.29-2,-78-5,-10"/>
          <path d="m288.5,278.14-4,-13-42.86,0-2.14,13"/>
          <path d="m390.91,285.29-100,0 2,-6.43-56.89,0-2,6.43-31.76,0c-8.24,70-98.18,91.1-202.26,91.1"/>
          <path d="m302.7,670.78-15.09,-370.5c0,0 4.32,-0.46 5.81,-4.96 1.18,-3.57-2.14,-11.07-2.14,-11.07"/>
          <path d="m254.84,670.78-12.86,-370.5c-4.78,-0.55-8.69,-6.89-4.02,-15.18l-1.34,-7.5"/>
          <path d="m226.52,670.78-12.5,-363.21-10,-17"/>
          <path d="m310.98,717.25-310.98,0"/>
        </g>
        <g style="stroke-width:10">
          <path d="m171.56,221.27c-7.66,-56.39-38.6,-159.6-171.56,-159.6"/>
          <path d="m184.19,226.83-91.42,-40.91-92.77,0"/>
          <path d="m427,931.14-1.79,-53.57-5.71,-15-26.58,-532.5 18.36,-30 3.93,-16.64-24.64,0-3.7,-63.82 6.91,-12.5 3.07,-15.57-11.64,0-2.15,-24.4L215,167.14c-6.95,67.47-73.36,106-215,106"/>
          <path d="m318.04,911.2-7.58,-228.8-4.55,-12.12-305.91,0"/>
        </g>
      </g>
    </g>
    <use transform="scale(-1 1)" xlink:href="#half"/>
    <g style="fill:#fff;stroke:#000;stroke-linecap:round;stroke-linejoin:miter;stroke-width:6">
      <path d="m-276.94 264.88c0.95-1.4 2.61-7.22 3.17-10.53 3.78-22.24-2.02-23.45 3.7-65.82 0.61-4.48-5.19-1.25-7.05-3-0.96-0.9-1.71-2.22-1.77-3.54-0.37-8.43 5.91-7.3 9.28-23.55 0.38-1.81 2.48-2.61 3.09-0.63 0.52 1.67-0.4 4.29 1.14 5.11 2.54 1.37 6.72 0.93 8.08-3.09 1.24-3.66-4.89-7.02-4.15-10.81 0.71-3.62 3.88-8.14 7.56-8.06 3.94 0.09 7.67 4.31 7.7 8.97 0.02 3.5-4.28 7.01-4.29 9.6 0.72 3.4 5.79 6.02 8.84 4.67 4.88-2.15-0.82-4.47 0.88-9.6 0.51-1.54 2.32-2.59 3.91-2.9 1.87-0.37 4.26-0.02 5.56 1.39 1.59 1.73 2.1 4.36 1.14 6.94-0.64 1.73-2.72 2.96-4.67 2.96-1.54 0-2.09 1.19-2.53 2.22-2.14 5.14 2.71 11.45 1.01 16.67-2.11 4.05-8.68 4.97-7.32 7.45 4.87 11.62-0.93 49.92-1.39 74.88z"/>
      <path d="m270.42 264.88c-3.58-10.83 1.68-20.8 1.21-24.12-5.54-39.12 3.33-32 3.32-46.08-0.01-4.53 1.31-3.33 2-4.98 1.21-2.88 3.57-5.46 3.74-8.58 0.43-7.91-3.72-6.43-7.09-22.67-0.38-1.81-2.48-2.61-3.09-0.63-0.52 1.67 0.47 4.44-1.14 5.11-2.93 1.23-6.72-1.04-8.08-5.07-1.24-3.66 4.91-8.29 3.93-12.57-0.82-3.59-3.88-8.14-7.56-8.06-3.94 0.09-7.67 4.31-7.7 8.97-0.02 3.5 4.5 8.98 4.51 11.57-0.72 3.4-7.98 6.02-11.03 4.67-4.88-2.15-1.15 0.35-2.86-4.77-0.51-1.54-1.3-3.04-2.16-4.44-1.48-2.4-2.48-7.71-5.12-6.73-4.23 1.57-0.12 10.94 0.84 13.52 0.64 1.73-4.74 6.03-2.78 6.03 1.54 0-3.02 12.83 0.99 16.7 2.34 2.25 8.04-5 9.74 0.22 2.11 4.05 2.54 7.6 1.18 10.08-3.12 21.49 5.31 46.19 5.77 71.15z"/>
    </g>
  </g>
  <g id="book" style="stroke:#000">
    <path style="fill:#fff;stroke-width:10" d="m-544.71,1089.23 471.91,-16.21 0,16.67 145.6,0 0,-16.67 471.91,16.21-40.52,-80.35351c-290.95,0-448.84,-112.21-504.19,-8.16-55.35,-104.05-213.24,8.16-504.19,8.16z"/>
    <path style="fill:none;stroke-width:20" d="m-560.12,1090.2 487.32,-16.92 0,16.67 145.6,0 0,-16.67 487.32,16.92"/>
  </g>
  <g id="type" style="fill:#000">
    <g id="type_encyclopedia_of">
      <path d="m-512.64,1196.65-8.67 29.14-0.78 3.36q-1.25 4.77-1.72 6.33-0.39 1.48-0.47 1.64 0 0.08-0.08 0.31-0.47 2.34-0.47 3.52 0 2.73 2.19 3.59 2.19 0.86 8.59 0.86 8.91 0 16.09-0.94 7.19-1.02 11.09-2.89 3.52-1.8 5.7-4.45 2.19-2.66 5.94-9.61 1.8-2.89 3.52-2.89 2.42 0 2.42 2.27 0 1.72-0.94 3.83-1.64 4.38-4.84 16.8-0.62 2.19-1.41 2.97-0.7 0.7-2.27 0.7-2.03 0-3.2-0.16-2.89-0.31-9.92-0.55-7.11-0.16-19.06-0.23-5.55-0.16-14.37-0.16-12.34 0-19.61 0.16-7.27 0.16-12.03 0.63-0.86 0.16-2.11 0.16-2.89 0-2.89-1.87 0-2.03 1.48-2.66 1.41-0.7 6.41-0.94 5.08-0.23 6.95-1.87 1.95-1.64 3.44-7.03l22.03-74.45q1.95-6.41 1.95-8.75 0-4.06-6.56-4.84-3.05-0.08-4.06-0.55-0.94-0.47-0.94-1.8 0-2.73 4.06-2.73 1.56 0 2.5 0.16 10.39 0.78 29.61 0.78 24.22 0 37.97-0.31l3.2 0q1.72 0 1.72 1.25 0 1.17-0.47 2.11-4.14 10.78-6.41 17.89-1.09 3.91-3.36 3.91-1.64 0-2.27-1.17-0.55-1.25-0.62-5.08-0.23-6.09-2.03-9.14-1.8-3.05-5.78-3.98-1.41-0.31-13.44-0.47l-2.89-0.16-5.62 0q-2.19 0-3.2 1.33-1.02 1.25-2.03 4.84l-10.62 35.7q9.38 0.31 9.45 0.31 8.98 0 13.83-1.02 4.92-1.02 7.73-3.52 2.81-2.58 5-7.73 1.41-3.36 3.36-3.36 1.02 0 1.64 0.47 0.63 0.47 0.63 1.25 0 1.56-0.94 3.2-2.42 4.69-5.47 14.38-2.97 9.61-3.83 15.7-0.62 4.77-3.2 4.77-2.58 0-2.58-2.81 0-0.39 0.31-2.58 0.31-3.28 0.31-5 0-4.06-1.17-5.86-1.09-1.8-4.69-2.42-3.59-0.62-11.25-0.62-3.83 0-10.86 0.31z"/>
      <path d="m-435.14,1215.87q8.98-14.37 13.91-20.86 4.92-6.48 10.55-11.8 12.42-11.09 23.67-11.09 5.94 0 9.14 2.81 3.2 2.73 3.2 7.81 0 3.44-1.64 8.98-1.64 5.55-5.55 15.31-3.28 8.36-5 13.05-1.72 4.69-3.36 10.16-1.72 5.7-1.72 7.81 0 3.05 2.11 3.05 1.8 0 6.33-4.06 4.53-4.06 7.73-8.75 1.17-1.8 2.03-2.73 0.86-0.94 1.64-1.09 0.7 0 1.17 0.63 0.55 0.55 0.55 1.33 0 1.72-4.61 7.97-6.09 8.2-13.67 13.36-7.5 5.08-13.52 5.08-7.66 0-7.66-7.89 0-5 2.81-13.44 4.06-12.58 11.56-31.95 4.3-11.56 4.3-14.92 0-2.19-1.02-3.28-0.94-1.17-2.81-1.17-4.77 0-11.41 5.55-6.56 5.47-13.28 14.38-6.64 8.83-12.97 20.39-6.33 11.56-10.7 23.83-1.33 3.67-2.27 4.77-0.94 1.09-3.28 1.41-2.27 0.23-9.14 0.23-3.36 0-3.36-2.27 0-0.78 1.64-5.08 8.83-23.67 12.89-37.81 1.64-4.92 4.06-14.06 1.09-4.06 1.09-6.41 0-2.19-1.8-2.19-1.33 0-5.23 3.44-3.83 3.36-7.19 7.58-3.52 4.45-4.69 4.45-1.72 0-1.72-2.03 0.23-3.05 9.45-12.5 5.55-5.55 10.94-8.52 5.47-3.05 10.31-3.05 3.05 0 4.61 1.95 1.64 1.95 1.64 5.63 0 5.31-1.8 11.72-1.72 6.41-7.97 24.3z"/>
      <path d="m-314.23,1172.12q5.39 0 9.69 1.48 4.38 1.41 6.72 4.06 2.34 2.66 2.34 5.86 0 3.05-2.42 5.23-2.34 2.11-5.78 2.11-2.89 0-5.62-2.34-2.66-2.34-4.92-6.8-1.33-2.81-2.73-3.98-1.33-1.25-3.36-1.25-4.77 0-9.77 4.38-5 4.3-9.3 11.8-4.22 7.42-6.72 16.17-2.5 8.67-2.5 17.11 0 7.66 4.14 12.58 4.22 4.84 10.7 4.84 8.2 0 16.33-6.41 4.06-3.28 9.61-9.77 0.78-1.09 1.8-1.09 0.31 0 0.63 0.31 0.78 0.55 0.78 1.25 0 2.27-5.55 8.28-5.47 5.94-11.09 10-9.84 7.03-20 7.03-7.27 0-13.28-3.59-6.02-3.59-9.45-9.92-3.36-6.41-3.36-14.22 0-10.47 4.22-20 4.22-9.53 11.8-17.11 7.58-7.58 17.19-11.8 9.61-4.22 19.92-4.22z"/>
      <path d="m-256.41,1246.73q7.42-8.59 11.88-14.37 4.45-5.86 9.84-14.14 7.97-12.5 7.97-20.47 0-3.36-1.56-7.97-1.95-5-1.95-7.19 0-2.89 1.09-5.23 1.17-2.34 3.05-3.67 1.95-1.41 4.38-1.41 3.59 0 5.7 2.89 2.11 2.81 2.11 7.58 0 5.08-1.95 11.17-1.95 6.02-6.02 13.05-4.06 7.03-11.17 16.88-6.25 8.52-10.16 13.44-3.83 4.92-9.77 11.95-5.86 6.95-13.36 15.39-9.45 10.47-15.39 15.55-5.86 5.08-11.17 7.34-5.31 2.27-11.56 2.27-5.62 0-9.3-2.58-3.67-2.5-3.67-6.56 0-2.03 1.02-3.75 1.02-1.64 2.81-2.58 1.72-0.86 4.06-0.86 2.66 0 4.53 1.09 1.88 1.17 5.7 5.16 2.5 2.5 4.77 2.5 3.05 0 6.25-2.03 3.28-2.03 6.09-5.55 2.89-3.52 5.08-8.52 6.88-15.55 6.88-49.92 0-10.78-0.94-18.59-0.94-7.81-2.66-11.87-1.72-4.14-4.06-4.14-2.5 0-5.47 3.36-1.95 2.03-3.05 3.83-1.09 1.72-5.55 9.61-1.02 1.64-1.95 1.64-0.78 0-1.33-0.7-0.55-0.78-0.55-1.56 0-1.72 2.11-5.62 2.19-3.91 4.77-7.5 9.38-12.34 20.16-12.34 5.39 0 8.52 4.06 3.2 4.06 4.69 12.73 1.48 8.67 1.48 22.73 0 13.75-2.34 34.92z"/>
      <path d="m-162.61,1172.12q5.39 0 9.69 1.48 4.38 1.41 6.72 4.06 2.34 2.66 2.34 5.86 0 3.05-2.42 5.23-2.34 2.11-5.78 2.11-2.89 0-5.62-2.34-2.66-2.34-4.92-6.8-1.33-2.81-2.73-3.98-1.33-1.25-3.36-1.25-4.77 0-9.77 4.38-5 4.3-9.3 11.8-4.22 7.42-6.72 16.17-2.5 8.67-2.5 17.11 0 7.66 4.14 12.58 4.22 4.84 10.7 4.84 8.2 0 16.33-6.41 4.06-3.28 9.61-9.77 0.78-1.09 1.8-1.09 0.31 0 0.63 0.31 0.78 0.55 0.78 1.25 0 2.27-5.55 8.28-5.47 5.94-11.09 10-9.84 7.03-20 7.03-7.27 0-13.28-3.59-6.02-3.59-9.45-9.92-3.36-6.41-3.36-14.22 0-10.47 4.22-20 4.22-9.53 11.8-17.11 7.58-7.58 17.19-11.8 9.61-4.22 19.92-4.22z"/>
      <path d="m-142.26,1217.43 19.53-57.11q1.72-5.08 1.72-7.03 0-2.66-1.8-3.44-1.8-0.86-7.97-0.94-1.87-0.23-1.87-1.72 0-1.72 1.41-2.27 1.41-0.62 4.84-0.62 5.94 0 10.86-0.94 5-1.02 11.64-3.67 1.25-0.47 2.11-0.47 0.78 0 1.41 0.63 0.7 0.55 0.7 1.25 0 0.16-0.7 2.42l-23.83 70.55q-3.52 10.31-6.09 19.06-1.25 4.69-1.25 6.25 0 2.34 1.95 2.34 1.95 0 6.41-4.06 4.53-4.06 7.97-8.91 2.11-2.97 2.58-3.44 0.47-0.47 1.09-0.55 0.16 0 0.78 0.31 1.02 0.47 1.02 1.48 0 1.33-2.11 4.69-2.11 3.28-5.31 6.8-6.56 7.11-12.73 11.02-6.17 3.91-10.62 3.91-3.91 0-6.02-2.5-2.11-2.5-2.11-7.42 0-2.5 0.47-5 0.55-2.5 2.27-8.44 0.31-1.25 0.63-2.27 0.31-1.02 1.09-3.98 1.8-5.62 1.95-5.94z"/>
      <path d="m-57.51,1172.28q6.41 0 12.27 2.58 5.86 2.5 10.16 6.95 4.38 4.45 6.8 10.47 2.42 5.94 2.42 12.81 0 6.48-2.19 12.89-2.11 6.33-6.09 11.95-3.98 5.63-9.3 9.92-7.19 5.7-16.48 9.38-9.3 3.59-16.95 3.59-6.25 0-11.8-2.42-5.55-2.5-9.84-7.19-4.22-4.69-6.48-10.86-2.27-6.17-2.27-12.97 0-9.37 4.69-18.75 4.69-9.37 12.58-15.7 4.69-3.75 10.23-6.56 5.63-2.89 11.33-4.45 5.78-1.64 10.94-1.64zm0.78 3.75q-5.08 0-10.23 2.81-5.16 2.81-8.98 7.58-6.8 8.75-10.94 20.78-4.06 12.03-4.06 23.36 0 8.98 3.75 13.83 3.75 4.77 10.63 4.77 10.47 0 17.42-8.52 5.16-6.09 9.14-13.91 3.98-7.89 6.25-16.25 2.34-8.36 2.34-15.78 0-8.83-4.06-13.75-3.98-4.92-11.25-4.92z"/>
      <path d="m-12.5,1247.67-7.34 24.84q-1.02 2.73-1.02 5.08 0 4.38 6.25 5 5.47 0.47 6.8 0.94 1.41 0.55 1.41 2.03 0 2.42-2.73 2.42-1.09 0-5.94-0.62-6.17-0.94-17.27-0.94-14.84 0-20.47 1.25-0.31 0.16-1.02 0.16-0.78 0-1.41-0.55-0.62-0.55-0.62-1.33 0-1.8 1.56-2.58 1.48-0.7 5.78-0.94 3.91-0.39 6.17-1.48 2.27-1.09 3.83-3.67 1.56-2.5 3.13-7.34l29.3-90.08q-3.36 0-6.48 0.55-3.12 0.47-5.55 1.33-0.94 0.31-1.25 0.31-1.8 0-1.8-1.72 0-0.7 0.7-1.56 0.7-0.86 1.72-1.17 1.56-0.7 3.05-0.94 1.56-0.31 11.17-1.8 0.31-0.86 3.2-10.23 1.48-4.61 2.19-6.02 0.7-1.41 2.27-1.72 1.64-0.39 6.41-0.39 1.09-0.08 2.03-0.16 0.94 0 2.66 0 2.58 0 2.58 1.41 0 1.56-1.64 5.78-0.47 0.94-2.27 6.56-0.23 0.47-1.09 2.89 7.5-1.48 16.17-1.48 28.13 0 28.13 23.36 0 9.38-4.06 20.23-4.06 10.86-10.78 19.45-6.87 8.75-16.64 13.52-9.77 4.77-20.62 4.77-5.23 0-9.06-1.17-3.75-1.17-7.42-3.98zm23.2-70.39-18.28 53.75q-2.19 6.17-2.19 9.3 0 3.59 3.13 6.02 3.2 2.42 8.2 2.42 5 0 10.31-2.5 5.39-2.58 8.91-6.56 5.23-6.02 9.61-14.53 4.38-8.52 6.8-17.19 2.5-8.67 2.5-15.47 0-8.52-4.45-12.34-4.45-3.83-14.14-3.83-4.45 0-10.39 0.94z"/>
      <path d="m89.57,1217.28-4.61 0.78q-6.41 1.09-6.41 1.33-0.31 4.69-0.31 5.23 0 8.28 3.83 13.28 3.83 5 10.23 5 11.25 0 22.42-11.09 2.89-2.89 3.52-3.44 0.7-0.55 1.56-0.55 1.33 0 1.33 1.48 0 1.56-2.66 4.84-2.58 3.2-7.11 7.11-13.2 11.56-25.78 11.56-7.34 0-13.36-3.59-5.94-3.59-9.3-10-3.28-6.48-3.28-14.61 0-21.72 17.11-37.42 7.34-6.8 16.48-10.86 9.14-4.06 17.19-4.06 9.14 0 15.23 5.23 6.17 5.16 6.17 12.73 0 6.41-4.37 11.8-4.3 5.31-12.11 8.67-8.12 3.44-16.33 4.77l-4.61 0.86-4.84 0.94zm-9.61-5.47-0.78 2.89q8.98-1.09 15.63-3.44 6.72-2.34 11.48-6.02 4.84-3.75 7.34-8.67 2.5-4.92 2.5-11.02 0-4.45-2.19-6.95-2.11-2.58-6.25-2.58-8.83 0-17.27 11.95-6.41 9.14-9.14 18.28-0.08 0-1.33 5.55z"/>
      <path d="m198.55,1144.15 4.38 0q10.7 0 18.52-4.3 1.88-0.86 2.58-0.86 0.63 0 1.02 0.55 0.39 0.55 0.39 1.25 0 1.17-3.67 10.39-0.08 0.23-8.28 25.31-4.45 13.44-6.72 20.23-2.19 6.8-2.81 8.75-0.55 1.88-0.7 2.34-0.08 0.47-0.47 1.95-8.52 27.27-8.52 29.77 0 2.5 1.95 2.5 0.78 0 2.73-1.56 2.03-1.64 4.45-4.45 2.42-2.5 3.59-4.14 1.25-1.72 4.38-6.48 1.09-1.41 1.95-1.41 0.31 0 0.78 0.47 0.78 0.55 0.78 1.48 0 1.88-3.98 7.5-3.98 5.55-8.44 9.77-10.08 9.61-19.69 9.61-2.66 0-4.3-1.95-1.64-1.87-1.64-4.92 0-3.98 2.11-11.17 2.19-7.27 7.81-22.5-10.08 13.67-18.52 22.73-8.44 9.06-15.31 13.52-6.87 4.45-12.11 4.45-6.33 0-10.31-5.23-3.91-5.31-3.91-13.83 0-11.09 5.08-22.19 5.08-11.09 14.06-20.08 8.98-9.06 20-14.22 11.02-5.16 22.11-5.16 3.83 0 5.94 0.94 2.11 0.86 3.67 2.97l5.78-19.53q0.78-2.97 0.78-4.37 0-3.36-4.14-3.36l-2.42 0q-3.36 0-3.36-2.19 0-2.58 4.45-2.58zm-10.7 32.19q-6.33 0-14.06 5.16-7.73 5.16-14.37 13.83-6.56 8.44-10.78 18.91-4.14 10.47-4.14 18.44 0 3.52 1.56 5.7 1.64 2.11 4.22 2.11 5.08 0 13.75-7.73 8.67-7.81 17.58-20.62 3.98-5.62 6.95-11.02 2.97-5.39 4.61-10.08 1.72-4.77 1.72-8.12 0-3.2-1.8-4.84-1.8-1.72-5.23-1.72z"/>
      <path d="m255.19,1225.24q0.78 0 1.25 0.63 0.47 0.55 0.47 1.33 0 1.41-3.05 5.47-2.97 3.98-6.72 7.66-12.97 12.5-22.19 12.5-3.67 0-5.39-1.95-1.72-1.87-1.72-6.09 0-5.7 2.73-14.37 2.34-6.87 8.05-21.25 5.23-13.28 6.72-16.48 2.34-5.7 2.5-8.05 0-1.56-1.25-1.56-2.42 0.23-8.28 5.23-1.72 1.41-7.73 7.73-1.09 1.09-1.87 1.09-0.55 0-1.09-0.62-0.55-0.62-0.55-1.17 0-2.58 8.67-11.02 5.78-5.47 12.34-8.75 6.64-3.28 11.64-3.28 5.78 0 5.78 6.95 0 2.81-0.47 4.69-0.39 1.88-2.42 7.19-1.95 5.31-6.09 15.78-3.52 8.75-5 12.97-1.48 4.22-3.98 12.42-1.72 5.7-1.72 7.11 0 0.63 0.47 1.25 0.47 0.63 1.09 0.63 2.11 0 7.42-4.77 3.75-3.67 8.28-9.61 1.33-1.64 2.11-1.64zm3.05-81.87q3.13 0 5.08 2.19 1.95 2.19 1.95 5.78 0 5.08-3.59 9.38-3.59 4.22-7.97 4.22-2.97 0-4.84-2.11-1.87-2.19-1.87-5.55 0-3.36 1.56-6.64 1.64-3.28 4.14-5.23 2.58-2.03 5.55-2.03z"/>
      <path d="m324.2,1213.6 0.47-1.64q-1.56 1.95-2.58 3.28-0.94 1.25-1.72 2.19-9.14 11.64-13.91 17.03-4.77 5.39-9.14 8.98-4.3 3.52-9.61 6.33-5.47 3.05-10.39 3.05-6.64 0-10.47-4.77-3.75-4.84-3.75-13.2 0-10.31 5.23-21.09 5.31-10.78 14.3-20 9.06-9.22 19.69-14.53 10.63-5.31 20.78-5.31 5.86 0 11.48 3.2 0.94 0.31 1.09 0.31 0.86 0 1.64-2.27 0.78-1.72 2.11-2.27 1.33-0.62 4.77-0.62 6.17 0 7.73 0.39 1.56 0.31 1.56 1.56 0 1.02-0.86 2.73 0 0-2.5 7.34l-2.27 6.56q-4.22 12.03-4.69 13.28-0.39 1.17-4.77 14.38-5.62 17.58-5.62 20.31 0 2.89 1.8 2.89 2.19 0 6.88-4.77 4.69-4.77 8.52-10.86 1.09-1.64 2.03-1.64 0.63 0 1.09 0.55 0.55 0.55 0.55 1.25 0 1.56-3.2 6.41-3.12 4.77-6.25 7.97-5.08 5.31-11.41 8.75-6.25 3.44-10.7 3.44-7.03 0-7.03-7.03 0-4.06 3.36-14.92 0.31-0.94 0.55-1.56 0.23-0.62 0.94-2.81 0.78-2.19 3.36-9.84 0 0 0-0.08 0-0.31 0.94-2.97zm-0.47-35.55q-5.78 0-12.11 3.59-6.25 3.59-12.11 10.16-5.78 6.48-10.55 15.39-3.59 6.8-5.86 13.67-2.27 6.88-2.27 11.41 0 3.91 1.72 6.25 1.8 2.27 4.84 2.27 10.23 0 31.95-28.12 6.64-8.59 10.39-15.7 3.75-7.11 3.75-11.56 0-3.36-2.66-5.31-2.66-2.03-7.11-2.03z"/>
      <path d="m452.5,1172.28q6.41 0 12.27 2.58 5.86 2.5 10.16 6.95 4.38 4.45 6.8 10.47 2.42 5.94 2.42 12.81 0 6.48-2.19 12.89-2.11 6.33-6.09 11.95-3.98 5.63-9.3 9.92-7.19 5.7-16.48 9.38-9.3 3.59-16.95 3.59-6.25 0-11.8-2.42-5.55-2.5-9.84-7.19-4.22-4.69-6.48-10.86-2.27-6.17-2.27-12.97 0-9.37 4.69-18.75 4.69-9.37 12.58-15.7 4.69-3.75 10.23-6.56 5.63-2.89 11.33-4.45 5.78-1.64 10.94-1.64zm0.78 3.75q-5.08 0-10.23 2.81-5.16 2.81-8.98 7.58-6.8 8.75-10.94 20.78-4.06 12.03-4.06 23.36 0 8.98 3.75 13.83 3.75 4.77 10.63 4.77 10.47 0 17.42-8.52 5.16-6.09 9.14-13.91 3.98-7.89 6.25-16.25 2.34-8.36 2.34-15.78 0-8.83-4.06-13.75-3.98-4.92-11.25-4.92z"/>
      <path d="m503.14,1180.01-12.5 0q-0.7 0-0.94-0.47-0.39-0.31-0.39-0.86l0.16-0.31 0.7-2.34q0.08-0.55 0.7-1.09 0.7-0.55 1.33-0.55l12.5 0q3.59-10 6.64-15 3.13-5 8.75-9.61 6.25-5.31 12.81-8.05 6.64-2.73 13.05-2.73 5.63 0 9.14 2.5 3.52 2.42 3.52 6.33 0 3.2-2.34 5.39-2.27 2.11-5.78 2.11-2.66 0-5.31-1.72-2.58-1.8-4.45-4.84-1.25-2.11-2.11-2.89-0.86-0.78-2.03-0.78-7.89 0-15.55 29.3l16.33 0q0.86 0 1.09 1.25l0 0.39-0.62 2.34q-0.23 0.55-0.94 1.09-0.7 0.55-1.17 0.55l-16.48 0q-1.17 4.14-1.25 4.14 0 0 0 0-5.78 21.95-7.27 27.34-1.48 5.31-8.44 29.77-3.75 13.13-6.8 20.86-3.05 7.73-6.56 12.5-3.52 4.77-8.36 8.28-9.22 6.72-18.59 6.72-6.17 0-10.47-3.05-4.37-2.97-4.37-7.34 0-3.12 2.19-5.23 2.11-2.03 5.16-2.03 3.2 0 4.92 1.56 1.72 1.64 3.05 5.86 1.88 5.08 4.69 5.08 4.3 0 7.81-7.66 2.27-4.92 5.31-16.17l5.7-21.64q0.63-2.27 3.2-11.41 2.58-9.22 4.61-16.09 2.03-6.95 3.75-12.81 1.72-5.86 5.63-18.67z"/>
    </g>
    <g id="type_philippine">
      <use xlink:href="#type_philippine_p" x="-515.73" y="1383.46"/>
      <use xlink:href="#type_philippine_h" x="-392.65" y="1367.67"/>
      <use xlink:href="#type_philippine_i" x="-238.56" y="1328.91"/>
      <use xlink:href="#type_philippine_l" x="-118.81" y="1446.62"/>
      <use xlink:href="#type_philippine_i" x="-52.39" y="1328.91"/>
      <use xlink:href="#type_philippine_p" x="21.62" y="1383.46"/>
      <use xlink:href="#type_philippine_p" x="137.42" y="1383.46"/>
      <use xlink:href="#type_philippine_i" x="253.23" y="1328.91"/>
      <use xlink:href="#type_philippine_n" x="408.14" y="1410.53"/>
      <use xlink:href="#type_philippine_e" x="465.33" y="1424.37"/>
    </g>
    <g id="type_heritage">
      <path d="m-503.44,1542.94 54.16 0q6.61 0 7.89-1.16 1.39-1.16 1.39-6.73l0-35.95q0-7.31-0.35-9.28-0.23-2.09-1.51-3.94-2.9-4.29-10.78-4.87-5.22-0.35-7.07-1.16-1.86-0.93-1.86-3.13 0-3.59 5.22-3.59 2.32 0 10.78 0.58 9.74 0.58 19.25 0.58 9.28 0 19.25-0.58 8.7-0.58 11.25-0.58 4.99 0 4.99 3.6 0 2.2-1.86 3.13-1.86 0.81-7.19 1.16-8.12 0.58-11.02 4.87-1.28 1.86-1.62 3.94-0.23 1.97-0.23 9.28l0 107.97q0 7.31 0.23 9.39 0.35 1.97 1.62 3.83 2.9 4.29 11.02 4.87 5.33 0.35 7.19 1.28 1.86 0.81 1.86 3.02 0 3.6-5.33 3.6-2.09 0-10.9-0.58-10.21-0.58-19.48-0.58-8.81 0-19.02 0.58-8.81 0.58-11.02 0.58-4.99 0-4.99-3.59 0-2.2 1.86-3.02 1.86-0.93 7.07-1.28 7.89-0.58 10.78-4.87 1.28-1.86 1.51-3.83 0.35-2.09 0.35-9.39l0-49.05q0-4.41-1.39-5.45-1.28-1.04-6.96-1.04l-53.58 0q-7.19 0-8.47 0.81-1.28 0.7-1.28 5.1l0 49.63q0 7.31 0.23 9.39 0.35 1.97 1.62 3.83 2.9 4.29 10.78 4.87 5.22 0.35 7.07 1.28 1.86 0.81 1.86 3.02 0 3.6-5.22 3.6-2.32 0-10.78-0.58-9.63-0.58-19.13-0.58-9.16 0-19.13 0.58-8.7 0.58-11.25 0.58-4.99 0-4.99-3.59 0-2.2 1.86-3.02 1.86-0.93 7.07-1.28 8-0.58 10.9-4.87 1.28-1.86 1.51-3.83 0.35-2.09 0.35-9.39l0-107.97q0-7.31-0.35-9.28-0.23-2.09-1.51-3.94-2.9-4.29-10.9-4.87-5.22-0.35-7.07-1.16-1.86-0.93-1.86-3.13 0-3.59 5.33-3.59 1.62 0 10.9 0.58 10.55 0.58 19.71 0.58 8.47 0 18.55-0.58 8.81-0.58 11.02-0.58 4.99 0 4.99 3.6 0 2.2-1.86 3.13-1.86 0.81-7.07 1.16-7.89 0.58-10.78 4.87-1.28 1.86-1.62 3.94-0.23 1.97-0.23 9.28l0 36.07q0 5.8 1.04 6.84 1.16 0.93 7.19 0.93z"/>
      <path d="m-355.96,1607.07 0-107.97q0-7.31-0.35-9.28-0.23-2.09-1.51-3.94-2.9-4.29-10.9-4.87-5.22-0.35-7.07-1.16-1.86-0.93-1.86-3.13 0-3.59 5.22-3.59l16.47 0.81 72.02 0q8.35 0 15.54-0.35 3.71-0.23 5.68-0.23 2.09 0 2.67 1.28 0.58 1.28 0.58 6.15l0 23.31q0 4.52-2.78 4.52-2.55 0-4.64-4.41-4.75-9.97-7.65-13.22-2.9-3.25-8.93-5.68-11.02-4.41-31.2-4.41-9.51 0-11.83 2.55-2.2 2.44-2.2 13.1l0 37.92q0 4.75 0.35 6.26 0.46 1.39 2.09 2.44 2.44 1.51 11.6 1.51 18.55 0 25.05-3.48 6.49-3.59 10.67-15.89 1.28-3.83 3.71-3.83 2.78 0 2.78 3.48 0 2.78-0.46 6.73-1.39 13.1-1.39 28.53 0 3.02 0.35 6.73 0.46 4.64 0.46 6.61 0 4.75-3.02 4.75-3.36 0-4.99-6.15-4.06-15.42-12.99-18.67-4.64-1.74-21.34-1.74-8.93 0-10.9 1.16-1.97 1.16-1.97 6.49l0 44.65q0 12.99 4.87 16.93 4.99 3.94 21.22 3.94 10.9 0 16.7-1.74 5.8-1.74 11.02-6.38 4.41-4.06 6.61-7.31 2.32-3.36 7.65-13.57 1.62-3.13 3.94-3.13 2.9 0 2.9 3.71 0 3.13-1.39 9.28-1.04 4.99-1.74 14.03-0.58 9.63-1.97 11.02-1.39 1.39-10.44 1.39l-86.63 0q-1.51 0-5.57 0.23-7.42 0.58-11.25 0.58-4.87 0-4.87-3.59 0-2.2 1.86-3.02 1.86-0.93 7.07-1.28 8-0.58 10.9-4.87 1.28-1.86 1.51-3.83 0.35-2.09 0.35-9.39z"/>
      <path d="m-155.64,1551.41q5.8 3.13 12.29 14.26l24.58 43.37q5.91 10.32 9.28 13.34 2.32 1.86 3.83 2.32 1.62 0.35 9.63 1.39 3.48 0.46 3.48 3.71 0 3.02-4.06 3.02-1.28 0-3.36-0.12-9.63-0.7-20.64-0.7-3.94 0-6.61 0.23-5.57 0.35-6.96 0.35-3.02 0-4.52-1.28-1.39-1.28-4.06-6.26l-30.5-57.64q-4.29-8.23-7.07-9.97-2.78-1.86-10.9-1.86-3.36 0-4.29 1.04-0.93 1.04-0.93 4.75l0 45.69q0 7.31 0.23 9.39 0.35 1.97 1.62 3.83 2.9 4.29 11.02 4.87 5.33 0.35 7.19 1.28 1.86 0.81 1.86 3.02 0 3.6-5.33 3.6-1.51 0-10.9-0.58-11.25-0.58-19.37-0.58-7.77 0-25.86 1.04-2.55 0.12-4.41 0.12-4.99 0-4.99-3.59 0-2.2 1.86-3.02 1.86-0.93 7.07-1.28 8-0.58 10.9-4.87 1.28-1.86 1.51-3.83 0.35-2.09 0.35-9.39l0-107.97q0-7.31-0.35-9.28-0.23-2.09-1.51-3.94-2.9-4.29-10.9-4.87-5.22-0.35-7.07-1.16-1.86-0.93-1.86-3.13 0-3.59 5.22-3.59 1.97 0 11.02 0.58 8.47 0.46 17.63 0.46 10.67 0 23.08-0.46 14.15-0.58 18.55-0.58 20.18 0 31.89 7.77 17.28 11.25 17.28 32.7 0 17.86-13.34 28.64-7.54 5.91-21.57 9.16zm-40.82-54.5 0 42.79q0 6.61 1.51 7.77 1.86 1.51 10.44 1.51 17.86 0 25.51-6.96 9.51-8.58 9.51-25.28 0-18.67-12.29-29.11-8.35-7.19-22.5-7.19-7.54 0-9.86 3.13-2.32 3.13-2.32 13.34z"/>
      <path d="m-36.89,1499.11 0 107.97q0 7.31 0.23 9.39 0.35 1.97 1.62 3.83 2.9 4.29 11.02 4.87 5.33 0.35 7.19 1.28 1.86 0.81 1.86 3.02 0 3.6-5.33 3.6-1.62 0-10.9-0.58-10.55-0.58-19.37-0.58-8.47 0-25.86 1.04-2.44 0.12-4.29 0.12-5.1 0-5.1-3.59 0-2.2 1.86-3.02 1.86-0.93 7.07-1.28 8-0.58 10.9-4.87 1.28-1.86 1.51-3.83 0.35-2.09 0.35-9.39l0-107.97q0-7.31-0.35-9.28-0.23-2.09-1.51-3.94-2.9-4.29-10.9-4.87-5.22-0.35-7.07-1.16-1.86-0.93-1.86-3.13 0-3.59 5.33-3.59 2.09 0 10.9 0.58 10.09 0.58 19.37 0.58 8.81 0 19.02-0.58 8.93-0.58 11.25-0.58 4.99 0 4.99 3.6 0 2.2-1.86 3.13-1.86 0.81-7.19 1.16-8.12 0.58-11.02 4.87-1.28 1.86-1.62 3.94-0.23 1.97-0.23 9.28z"/>
      <path d="m76.71,1490.76 0 116.31q0 7.31 0.23 9.39 0.35 1.97 1.62 3.83 2.9 4.29 11.02 4.87 5.33 0.35 7.19 1.28 1.86 0.81 1.86 3.02 0 3.6-5.33 3.6-1.74 0-10.9-0.58-12.06-0.7-19.48-0.7-6.96 0-25.74 1.16-2.32 0.12-4.29 0.12-5.1 0-5.1-3.59 0-2.2 1.86-3.02 1.86-0.93 7.07-1.28 8-0.58 10.9-4.87 1.28-1.86 1.51-3.83 0.35-2.09 0.35-9.39l0-118.75q0-4.06-1.28-5.45-1.28-1.51-4.99-1.51-11.36 0-17.63 1.04-6.15 0.93-10.09 3.25-4.29 2.67-9.86 8.81-5.57 6.15-8.47 11.48-2.67 5.1-5.57 5.1-3.36 0-3.36-3.25 0-1.74 0.7-4.06l10.32-35.95q1.28-4.64 3.94-4.64 2.32 0 3.02 3.48 0.81 4.29 3.13 5.8 2.32 1.51 8.12 1.51l82.1 0q16.47 0 21.92-1.51 5.45-1.51 7.42-6.49 1.39-3.59 3.59-3.59 3.48 0 3.48 7.31 0 1.86-0.12 3.02l-1.62 31.08q-0.46 8.12-4.17 8.12-3.02 0-4.06-5.57-2.55-14.26-10.09-20.29-3.36-2.67-7.77-3.48-4.41-0.93-15.31-0.93-8.93 0-11.13 0.23-2.09 0.12-3.36 1.04-1.62 1.39-1.62 7.89z"/>
      <path d="m161.29,1580.17-8.58 27.02q-2.2 7.19-2.44 11.02 0 0.12 0 0.23 0 6.03 12.18 6.49 9.74 0.23 9.74 4.06 0 3.6-6.03 3.6-0.93 0-13.57-0.46-8-0.35-13.92-0.35-7.65 0-17.28 0.7-2.67 0.12-4.29 0.12-4.52 0-4.52-3.59 0-2.09 1.62-3.02 1.51-0.93 5.8-1.28 7.77-0.7 10.55-2.9 2.9-2.32 6.84-10.9 12.29-26.79 50.56-129.77 2.55-7.65 3.59-9.28 1.04-1.62 3.36-1.62 2.55 0 4.17 4.29 1.28 3.25 3.13 8.35 3.25 9.51 7.19 19.13l39.78 96.37q7.42 17.97 10.9 21.92 3.6 3.94 13.57 5.33 3.48 0.46 3.48 3.71 0 3.48-5.68 3.48-0.93 0-4.87-0.23-11.94-0.93-24.24-0.93-9.28 0-26.9 1.16-1.74 0.12-3.36 0.12-5.8 0-5.8-3.36 0-3.71 9.28-4.52 5.1-0.46 6.96-1.74 1.97-1.28 1.97-4.17 0-2.55-1.74-7.42l-11.02-30.38q-1.97-5.57-3.48-6.61-1.39-1.04-6.96-1.04l-30.38 0q-5.68 0-6.96 0.81-1.16 0.81-2.67 5.68zm22.73-65.99-15.54 42.68q-1.28 3.36-1.28 4.87 0 1.62 1.16 2.09 1.16 0.46 4.99 0.46l24.12 0q5.8 0 5.8-1.74 0-1.51-1.28-4.75l-17.97-43.6z"/>
      <path d="m384.82,1599.07 0-21.92q0-8.58-3.36-11.71-3.25-3.13-12.64-3.48-5.8-0.12-7.89-0.93-1.97-0.81-1.97-2.9 0-3.36 5.57-3.36 1.74 0 5.91 0.23 14.84 0.58 31.08 0.58 12.87 0 19.48-0.58 7.19-0.7 10.21-0.7 3.83 0 3.83 3.13 0 1.97-1.97 2.78-1.86 0.81-7.42 1.16-7.42 0.58-10.09 3.13-2.67 2.55-2.67 8.93 0 1.28 0.58 16.24 0.35 7.31 0.35 16 0 8.12-0.58 10.21-0.46 1.97-3.13 3.71-9.63 6.73-25.74 10.9-16 4.17-31.89 4.17-40.12 0-63.78-23.19-11.71-11.6-18.32-28.88-5.45-14.38-5.45-28.18 0-26.32 17.4-48.13 16.7-20.87 44.07-29.34 17.28-5.33 37.34-5.33 19.83 0 35.95 5.45 3.25 1.16 4.52 2.55 1.39 1.39 2.09 4.29 0.7 2.78 1.86 11.25 1.28 8.35 1.28 10.32 0 4.17-3.25 4.17-2.78 0-5.91-5.8-6.96-12.76-15.08-18.21-11.6-7.54-26.67-7.54-24.35 0-41.28 20.53-20.29 24.59-20.29 57.17 0 25.28 12.99 45 17.86 27.37 48.94 27.37 16.58 0 21.8-6.61 4.17-5.33 4.17-22.5z"/>
      <path d="m455.11,1607.07 0-107.97q0-7.31-0.35-9.28-0.23-2.09-1.51-3.94-2.9-4.29-10.9-4.87-5.22-0.35-7.07-1.16-1.86-0.93-1.86-3.13 0-3.59 5.22-3.59l16.47 0.81 72.02 0q8.35 0 15.54-0.35 3.71-0.23 5.68-0.23 2.09 0 2.67 1.28 0.58 1.28 0.58 6.15l0 23.31q0 4.52-2.78 4.52-2.55 0-4.64-4.41-4.75-9.97-7.65-13.22-2.9-3.25-8.93-5.68-11.02-4.41-31.2-4.41-9.51 0-11.83 2.55-2.2 2.44-2.2 13.1l0 37.92q0 4.75 0.35 6.26 0.46 1.39 2.09 2.44 2.44 1.51 11.6 1.51 18.55 0 25.05-3.48 6.49-3.59 10.67-15.89 1.28-3.83 3.71-3.83 2.78 0 2.78 3.48 0 2.78-0.46 6.73-1.39 13.1-1.39 28.53 0 3.02 0.35 6.73 0.46 4.64 0.46 6.61 0 4.75-3.02 4.75-3.36 0-4.99-6.15-4.06-15.42-12.99-18.67-4.64-1.74-21.34-1.74-8.93 0-10.9 1.16-1.97 1.16-1.97 6.49l0 44.65q0 12.99 4.87 16.93 4.99 3.94 21.22 3.94 10.9 0 16.7-1.74 5.8-1.74 11.02-6.38 4.41-4.06 6.61-7.31 2.32-3.36 7.65-13.57 1.62-3.13 3.94-3.13 2.9 0 2.9 3.71 0 3.13-1.39 9.28-1.04 4.99-1.74 14.03-0.58 9.63-1.97 11.02-1.39 1.39-10.44 1.39l-86.63 0q-1.51 0-5.57 0.23-7.42 0.58-11.25 0.58-4.87 0-4.87-3.59 0-2.2 1.86-3.02 1.86-0.93 7.07-1.28 8-0.58 10.9-4.87 1.28-1.86 1.51-3.83 0.35-2.09 0.35-9.39z"/>
    </g>
  </g>
</svg>
