<svg xmlns="http://www.w3.org/2000/svg" viewBox="0 0 100 22">
<g fill="#666">
  <path d="M13.76.15l-2.82 8.6H8.8L6.9 2.93 4.96 8.75H2.83L0 .15h2.07L4 6.2 6.04.15h1.84l1.97 6.1 2-6.1zM14.74.15h1.99v8.6h-2zM21.3 5.37l-1.16 1.2v2.18h-1.98V.15h1.98v4.02l3.8-4.02h2.22l-3.57 3.83 3.78 4.77h-2.33zM26.95.15h1.99v8.6h-2zM36.05 8.9q-1.02 0-1.97-.27-.95-.28-1.53-.73l.68-1.5q.55.41 1.31.66.76.24 1.53.24.85 0 1.25-.24.4-.26.4-.68 0-.3-.24-.5-.23-.21-.61-.34-.37-.12-1.01-.27-.99-.23-1.61-.46-.63-.24-1.08-.75-.45-.52-.45-1.38 0-.75.4-1.35.41-.62 1.23-.97.82-.36 2-.36.82 0 1.61.2.79.2 1.38.56l-.62 1.51q-1.19-.67-2.38-.67-.84 0-1.24.27t-.4.71q0 .44.46.67.46.2 1.41.41.98.24 1.61.47.63.23 1.07.74.46.5.46 1.36 0 .74-.42 1.35-.4.6-1.23.96t-2 .36zM44.93 8.9q-1.34 0-2.42-.58-1.07-.58-1.69-1.58-.6-1.02-.6-2.29t.6-2.27q.62-1.02 1.69-1.6Q43.59 0 44.93 0q1.34 0 2.41.58t1.68 1.6q.62 1 .62 2.27t-.62 2.29q-.61 1-1.68 1.58-1.07.58-2.41.58zm0-1.7q.76 0 1.38-.34.61-.36.96-.98.35-.63.35-1.43 0-.8-.35-1.43-.35-.62-.96-.97-.62-.35-1.38-.35-.76 0-1.38.35-.61.35-.97.97-.34.63-.34 1.43 0 .8.34 1.43.36.62.97.98.62.34 1.38.34zM54.95 8.9q-1.32 0-2.39-.57-1.05-.57-1.67-1.58-.6-1.02-.6-2.3 0-1.28.6-2.29.62-1.02 1.67-1.58Q53.63 0 54.96 0q1.12 0 2.02.4.9.39 1.52 1.12L57.22 2.7q-.87-1-2.16-1-.8 0-1.43.35-.62.35-.98.97-.34.63-.34 1.43 0 .8.34 1.43.36.62.98.98.63.34 1.43.34 1.29 0 2.16-1.02l1.28 1.18q-.61.75-1.52 1.15-.91.39-2.03.39zM59.53.15h2v8.6h-2zM69.61 7.15v1.6h-6.66V.15h6.5v1.6h-4.52V3.6h4v1.55h-4v2zM73.29 1.77h-2.75V.15h7.5v1.62h-2.76v6.98H73.3zM83.85 5.7v3.05h-2V5.68L78.54.15h2.11l2.3 3.82 2.3-3.82h1.95zM93.63 4.2q-.64 0-1.15-.26-.51-.27-.8-.74-.29-.48-.29-1.07 0-.6.3-1.07.28-.48.8-.74.5-.27 1.14-.27.65 0 1.16.27.5.26.8.74.29.47.29 1.07 0 .6-.3 1.07-.28.47-.8.74-.5.27-1.15.27zm0-1.08q.25 0 .45-.12t.33-.34q.12-.23.12-.53 0-.3-.12-.52-.12-.23-.33-.35-.2-.13-.45-.13t-.45.13q-.2.12-.32.35-.12.22-.12.52 0 .3.12.53.12.22.32.34.2.12.45.12zM97.7 1.15v.68h1.66v1.01h-1.65v1.28h-1.34V.14h3.23v1.01zM88.78 5.82h-1.16V4.78h3.67v1.04h-1.17v2.93h-1.34zM95.55 4.78v3.97h-1.34V7.3h-1.23v1.46h-1.34V4.78h1.34v1.4h1.23v-1.4zM99.5 7.74v1.01h-3.3V4.78h3.23v1h-1.91v.47h1.68v.97h-1.68v.52z"/>
</g>
<g fill="#444">
  <path id="p" d="M6.97 10.87q2.11 0 3.31 1 1.2 1.02 1.2 2.78 0 1.77-1.2 2.78-1.2 1-3.3 1H4v3.47H2.84V10.87zm-.03 6.53q1.64 0 2.5-.71.87-.73.87-2.04 0-1.34-.86-2.05-.87-.72-2.5-.72H4v5.52z"/>
  <path d="M23.09 10.87V21.9h-1.15v-5.09h-6.9v5.1h-1.17V10.86h1.16v4.92h6.9v-4.92z"/>
  <rect x="26.09" y="10.87" width="1.17" height="11.04"/>
  <path d="M30.26 10.87h1.17V20.9h6.18v1h-7.35z"/>
  <rect x="39.55" y="10.87" width="1.17" height="11.04"/>
  <use href="#p" transform="translate(40.87,0)"/>
  <use href="#p" transform="translate(51.74,0)"/>
  <rect x="65.61" y="10.87" width="1.17" height="11.04"/>
  <path d="M79 10.87V21.9h-.96l-7.1-8.95v8.95h-1.16V10.87h.96l7.1 8.95v-8.95zM89.8 20.9v1H82V10.87h7.57v1h-6.4v3.93h5.7v1h-5.7v4.1zM95.89 22q-1.23 0-2.37-.4-1.12-.39-1.73-1.04l.45-.9q.6.6 1.6.98.99.37 2.05.37 1.48 0 2.22-.54.74-.55.74-1.42 0-.66-.41-1.05-.4-.4-.98-.6-.58-.22-1.62-.48-1.25-.31-1.99-.6-.74-.3-1.28-.9-.52-.6-.52-1.62 0-.83.45-1.51.44-.7 1.35-1.1.92-.41 2.27-.41.95 0 1.85.26.91.26 1.57.71l-.4.93q-.68-.45-1.47-.68-.8-.23-1.55-.23-1.45 0-2.19.57-.72.55-.72 1.43 0 .66.39 1.07.41.4 1 .62.62.2 1.65.45 1.21.3 1.95.6.76.29 1.28.89.52.58.52 1.59 0 .83-.46 1.53-.44.68-1.37 1.09-.93.39-2.28.39z"/>
</g>
</svg>
