<?xml version="1.0" encoding="UTF-8" standalone="yes"?>
<svg
  xmlns="http://www.w3.org/2000/svg"
  xmlns:xlink="http://www.w3.org/1999/xlink"
  viewBox="-450 -450 900 900">
<path id="red-border" fill="#900" d="M0,-450a450,450 0 0 0-369.9,194.7l86.8,50.1A350,350 0 0 1 0,-350 350,350 0 0 1 283,-205.1 l87.3,-50.4A450,450 0 0 0 0,-450 z"/>
<path id="blue-border" fill="#069" d="M-417.5,-167.3A450,450 0 0 0-450,0 450,450 0 0 0-50,446.7V 346A350,350 0 0 1-350,0a350,350 0 0 1 20.4,-116.5z"/>
<use xlink:href="#blue-border" transform="scale(-1,1)"/>
<path id="globe" fill="#396" d="m-143.9,-262.8a300,300 0 0 0-99.4,87.7c2,1.1 4.8,2.2 8.7,3 8.6,1.9 21.3,2.2 36.5,0.6 3.9,-0.4 7.9,-1 12.1,-1.6 1.5,-5.6 3,-11 4.7,-16.4 9,-28.3 21.5,-53.2 37.3,-73.3z m24.9,1.7c-18.3,19-32.9,45.5-43.2,77.7-0.6,2-1.2,4-1.8,6.1 21.5,-4.9 45.6,-12.3 70.6,-22.1z m-135.3,102.8a300,300 0 0 0-44.3,133c4.5,3.3 10.7,6.1 18.9,8.2 15.5,4.1 37.2,5.3 63,3.2 7,-0.6 14.2,-1.4 21.7,-2.4-5.4,-48.5-3.7,-94.8 4.4,-135.8-1.8,0.2-3.5,0.4-5.3,0.6-16.6,1.8-31,1.7-42.9,-0.9-5.6,-1.2-10.9,-3.1-15.4,-5.9z m84.8,2.7c-8.8,40.2-11.1,86.8-5.7,136.1 41.6,-7.5 89.5,-21.4 139.2,-41.3L-85.8,-181c-29.8,11.8-58.4,20.3-83.7,25.3zM-299.9,-3.2a300,300 0 0 0 22.8,118 300,300 0 0 0 9.2,20c3.7,1.6 8,3 12.8,4.2 17.8,4.4 42.7,5.5 72.2,2.9 9.2,-0.8 18.9,-2 28.9,-3.6-13.1,-29.9-23.8,-62.5-31.5,-97.3-2.8,-12.7-5.1,-25.2-7,-37.7-7.8,1-15.4,1.9-22.7,2.5-27.3,2.2-50.8,1.2-69.7,-3.8-5.4,-1.4-10.4,-3.2-15,-5.4zm127.2,3.5c1.8,12 4,24.2 6.7,36.5 7.8,35.3 18.9,68.3 32.4,98.1 47.5,-9 102.1,-25.2 158.8,-48L-28.4,-42.4c-51.3,20.6-100.8,35-144.3,42.7zM-253.8,159.8a300,300 0 0 0 110.7,103.7c12,1 25.8,0.9 41.1,-0.3 9.1,-0.7 18.8,-1.9 28.9,-3.5-3.7,-3.6-7.4,-7.4-11,-11.4-22.9,-24.9-43.7,-55.7-61,-91.1-12.5,2-24.5,3.6-35.9,4.6-28,2.5-52.6,2-72.7,-2zm129.2,-6.3c16,31.7 34.9,59.2 55.2,81.2 6.9,7.5 13.9,14.3 21.1,20.5 38.7,-7.9 82.2,-21 127.2,-39L32.8,105.4c-55.8,22.5-109.7,38.7-157.5,48.2zM-98.7,283a300,300 0 0 0 79.4,16c-11.8,-6-23.3,-13.4-34.4,-22.3-15.8,2.9-30.8,5-44.9,6.3zm71.2,-11.8c28.9,19.2 58.8,27.4 87.2,22.7A300,300 0 0 0 105.4,280.5L86.4,234.7c-39.7,15.9-78.3,28.1-113.9,36.5z"/>
<path id="sun" fill="#fcd116" d="m 215,-215h-82.8l-56.8,92.4C62.4,-130.5 48.2,-136.4 33.4,-140L58.5,-245.5 0,-304l-58.5,58.5 25.2,105.6 108.7,262.4 56.8,92.4h82.8V132.2L122.5,75.3C130.5,62.4 136.4,48.2 140,33.4L245.5,58.5 304,0 245.5,-58.5 139.9,-33.3c-3.5,-14.8-9.4,-29-17.4,-42l92.4,-56.8z"/>
</svg>
