<?xml version="1.0" encoding="UTF-8" standalone="no"?>
<svg xmlns="http://www.w3.org/2000/svg" xmlns:xlink="http://www.w3.org/1999/xlink" viewBox="0 0 100 20.544">
<g fill="#fff" stroke="none">
  <path d="M7.0252 1.8193q2.9109 0 4.4503 1.2875 1.5394 1.2875 1.5394 3.6945 0 2.3791-1.9592 4.2544-1.9593 1.8752-4.4503 1.8752h-2.351l-.056 2.743q0 1.9032.1959 2.379.2239.4758 1.0355.4758l1.5115-.084.056.112-.252 1.2875q0-.084-1.8472-.084-1.8473 0-3.3587.084-1.4834.084-1.5394.14l.196-1.2876q1.2315-.2239 1.6233-.6437.3919-.4479.3919-1.6514l.028-11.7553q0-.8957-.224-1.2036-.1959-.3079-.8116-.3079l-.9517.056-.056-.112.196-1.2314q2.0432.084 3.1067.084zm3.6386 5.5138q0-2.1551-1.2875-3.1348Q8.1168 3.1907 5.402 3.1907q-.5038 0-.6158.056-.112.056-.14.336-.2518 3.5545-.3358 7.6969l2.9668.4198q3.3867-.5598 3.3867-4.3663z"/>
  <path id="a" d="M25.461 19.8162q-1.7073-.056-2.547-.056-1.3155 0-3.5266.196l-.084-.14.084-1.0076q1.1755-.084 1.5674-.252.4198-.1678.4198-.5877 0-.4198-.196-.9236L20.507 14.89q-.5597-.028-1.8472-.028t-2.8829.168q-.9796 2.603-.9796 2.8548 0 .8397 1.3155.8397h1.2035l.084.112-.168 1.0636q-1.7073-.14-3.2187-.14l-2.575.056.168-1.1475q.6157-.084.9796-.4199.3638-.3638.7277-1.2035l4.3943-11.1116 1.9872-.3639.196.028q1.9591 7.0532 3.5545 11.5595.28.8116.6998 1.1475.4478.3079 1.3994.3919l.056.112zm-7.3331-6.1016q.9796 0 2.0432-.112l-1.7073-5.4298h-.196l-2.0432 5.5418z"/>
  <path id="n" d="M37.5877 6.9413h-.8397l-.056-.112.196-1.0915q1.5394.084 2.379.084l2.379-.168-.1119 1.1476q-1.5114.1959-1.5394 1.3994l-.3358 12.0353-1.0916.3079q-4.3103-6.2696-8.0888-11.2796h-.14l-.084 8.4807q0 .5318.168.7277.1679.1959.5598.1959l1.1195-.028.084.084-.2239 1.1196q-1.5674-.084-2.547-.084l-2.323.1679.1399-1.1476q1.3714-.1679 1.3994-1.3714l.3079-9.2364q0-.6997-.4198-.9516-.3919-.2799-1.5394-.4198l-.112-.14.196-.9516q1.3714.112 2.127.112l1.7074-.084q3.3867 4.982 7.3331 10.216h.14l-.028-8.0889q0-.9236-.7557-.9236z"/>
  <use xlink:href="#a" transform="translate(29.8327,0)"/>
  <use xlink:href="#n" transform="translate(29.8327,0)"/>
  <path d="M78.745 20.0121q-2.1272-.2519-2.9949-.2519-1.5394 0-3.0508.252l.14-1.1756q1.0076-.168 1.3715-.5598.3638-.3918.3638-1.2875l.028-8.9005q0-.6997-.168-.9236-.1679-.252-.6437-.252l-.7837.056-.056-.1399.168-1.0635q1.6513.056 2.519.056l3.5266-.084q3.4147 0 5.4578 1.7913 2.0712 1.7633 2.0712 4.898 0 3.1348-2.295 5.374-2.2672 2.211-5.6538 2.211zM77.6814 7.0532q-.4478 0-.6158.112-.14.084-.168.3918-.3358 7.865-.3358 9.1244 0 1.2316.5318 1.6234.5318.3639 2.1272.3639 2.351 0 3.6665-1.5394 1.3435-1.5394 1.3435-4.3383 0-2.799-1.6793-4.2544-1.6794-1.4834-4.8701-1.4834z"/>
  <use xlink:href="#a" transform="translate(74.3992,0)"/>
  <path d="M89.4203 3.7225l-.3919-.6157L92.891 0h.3918q2.0432 1.7353 3.8625 3.1068l-.3918.6157-.252.028q-1.8752-1.0915-3.4146-1.8193-1.4554.6718-3.4146 1.8193z"/>
</g>
</svg>
